<?xml version="1.0" encoding="utf-8"?>
<!-- Generator: Adobe Illustrator 16.0.0, SVG Export Plug-In . SVG Version: 6.00 Build 0)  -->
<!DOCTYPE svg PUBLIC "-//W3C//DTD SVG 1.1//EN" "http://www.w3.org/Graphics/SVG/1.1/DTD/svg11.dtd">
<svg version="1.1" id="Layer_1" xmlns="http://www.w3.org/2000/svg" xmlns:xlink="http://www.w3.org/1999/xlink" x="0px" y="0px"
	 width="24px" height="24px" viewBox="0 0 24 24" enable-background="new 0 0 24 24" xml:space="preserve">
<path fill="#FFFFFF" stroke="#FFFFFF" stroke-width="0.3" stroke-miterlimit="10" d="M9.421,6.198c-1.776,0-3.223,1.446-3.223,3.223
	v5.157c0,1.777,1.446,3.224,3.223,3.224h5.157c1.777,0,3.225-1.446,3.225-3.224V9.421c0-1.777-1.447-3.223-3.225-3.223H9.421z
	 M9.421,7.487h5.157c1.066,0,1.936,0.868,1.936,1.934v5.157c0,1.066-0.869,1.936-1.936,1.936H9.421
	c-1.065,0-1.934-0.869-1.934-1.936V9.421C7.488,8.355,8.356,7.487,9.421,7.487z M15.225,8.132c-0.356,0-0.646,0.289-0.646,0.645
	s0.289,0.645,0.646,0.645c0.355,0,0.646-0.289,0.646-0.645S15.58,8.132,15.225,8.132z M12,8.777c-1.777,0-3.223,1.446-3.223,3.223
	c0,1.777,1.446,3.225,3.223,3.225c1.777,0,3.225-1.447,3.225-3.225C15.225,10.222,13.777,8.777,12,8.777z M12,10.066
	c1.066,0,1.934,0.868,1.934,1.934c0,1.066-0.867,1.934-1.934,1.934c-1.064,0-1.934-0.867-1.934-1.934
	C10.066,10.934,10.936,10.066,12,10.066z"/>
<circle fill="none" stroke="#FFFFFF" stroke-width="0.5" stroke-miterlimit="10" cx="12" cy="12" r="11.158"/>
</svg>
