<?xml version="1.0" encoding="utf-8"?>
<!-- Generator: Adobe Illustrator 16.0.0, SVG Export Plug-In . SVG Version: 6.00 Build 0)  -->
<!DOCTYPE svg PUBLIC "-//W3C//DTD SVG 1.1//EN" "http://www.w3.org/Graphics/SVG/1.1/DTD/svg11.dtd">
<svg version="1.1" id="Layer_1" xmlns="http://www.w3.org/2000/svg" xmlns:xlink="http://www.w3.org/1999/xlink" x="0px" y="0px"
	 width="24px" height="24px" viewBox="0 0 24 24" enable-background="new 0 0 24 24" xml:space="preserve">
<circle fill="none" stroke="#FFFFFF" stroke-width="0.5" stroke-miterlimit="10" cx="12" cy="12" r="11.761"/>
<path fill="#FFFFFF" d="M18.617,7.878c-0.487,0.217-1.011,0.362-1.561,0.428c0.562-0.336,0.992-0.868,1.194-1.501
	c-0.524,0.31-1.105,0.536-1.724,0.658c-0.494-0.528-1.2-0.857-1.98-0.857c-1.5,0-2.716,1.214-2.716,2.714
	c0,0.212,0.025,0.419,0.072,0.619C9.646,9.825,7.647,8.744,6.308,7.102C6.073,7.503,5.94,7.97,5.94,8.467
	c0,0.941,0.479,1.772,1.208,2.26c-0.446-0.014-0.864-0.137-1.23-0.34c0,0.012,0,0.023,0,0.034c0,1.316,0.936,2.413,2.176,2.663
	c-0.227,0.063-0.467,0.096-0.714,0.096c-0.175,0-0.345-0.018-0.511-0.05c0.346,1.077,1.349,1.864,2.536,1.886
	c-0.928,0.728-2.099,1.161-3.371,1.161c-0.22,0-0.435-0.013-0.646-0.038c1.2,0.771,2.627,1.22,4.161,1.22
	c4.992,0,7.724-4.136,7.724-7.722c0-0.118-0.004-0.236-0.008-0.352C17.794,8.901,18.254,8.423,18.617,7.878z"/>
</svg>
